<?xml version="1.0" encoding="utf-8"?>
<!-- Generator: Adobe Illustrator 16.2.0, SVG Export Plug-In . SVG Version: 6.00 Build 0)  -->
<!DOCTYPE svg PUBLIC "-//W3C//DTD SVG 1.1//EN" "http://www.w3.org/Graphics/SVG/1.1/DTD/svg11.dtd">
<svg version="1.1" id="Слой_1" xmlns="http://www.w3.org/2000/svg" xmlns:xlink="http://www.w3.org/1999/xlink" x="0px" y="0px"
	 width="318px" height="43px" viewBox="0 0 318 43" enable-background="new 0 0 318 43" xml:space="preserve">
<g>
	<g>
		<polygon fill="#ED1847" points="137.946,9.368 142.782,0.415 142.782,0.33 100.444,0.33 100.444,42.67 142.782,42.67 
			142.782,33.633 109.48,33.633 109.48,9.367 		"/>
		<path fill="#ED1847" d="M0.457,42.67h8.729V26.018h32.169V0.33H0.457V42.67z M9.186,9.367h23.44v7.614H9.186V9.367z"/>
		<polygon fill="#ED1847" points="82.619,16.981 59.18,16.981 59.18,0.33 50.45,0.33 50.45,26.018 82.619,26.018 82.619,33.633 
			58.568,33.633 53.687,42.67 91.349,42.67 91.349,0.33 82.619,0.33 		"/>
	</g>
	<g>
		<path fill="#4495D1" d="M151.82,16.981h-10.883h-4.867l-4.882,9.038h9.749h10.883V42.67h42.339V0.33H151.82V16.981z
			 M160.856,9.367h24.267v24.266h-24.267V9.367z"/>
		<polygon fill="#4495D1" points="236.138,0.33 227.135,16.994 212.233,16.994 212.233,16.981 212.233,0.33 203.196,0.33 
			203.196,42.67 212.233,42.67 212.233,26.018 236.499,26.018 236.499,42.67 245.535,42.67 245.535,16.995 236.532,16.994 
			245.535,0.33 		"/>
		<path fill="#4495D1" d="M307.794,16.981h-10.884V0.33h-42.339v42.34h42.339V26.019h10.884h4.866l4.883-9.038H307.794z
			 M287.875,33.633h-24.266V9.367h24.266V33.633z"/>
	</g>
</g>
</svg>
